[Header]
FileType HTR
DataType HTRS
FileVersion 1
NumSegments 64
NumFrames 3
DataFrameRate 24
EulerRotationOrder ZYX
CalibrationUnits mm
RotationUnits Degrees
GlobalAxisofGravity Y
BoneLengthAxis Y
ScaleFactor 1.0
[SegmentNames&Hierarchy]
Hips	GLOBAL
Spine	Hips
Spine1	Spine
Spine2	Spine1
Neck	Spine2
Head	Neck
LeftEye	Head
RightEye	Head
LeftShoulder	Spine2
LeftArm	LeftShoulder
LeftForeArm	LeftArm
LeftHand	LeftForeArm
LeftHandThumb1	LeftHand
LeftHandThumb2	LeftHandThumb1
LeftHandThumb3	LeftHandThumb2
LeftHandThumb4	LeftHandThumb3
LeftHandIndex1	LeftHand
LeftHandIndex2	LeftHandIndex1
LeftHandIndex3	LeftHandIndex2
LeftHandIndex4	LeftHandIndex3
LeftHandMiddle1	LeftHand
LeftHandMiddle2	LeftHandMiddle1
LeftHandMiddle3	LeftHandMiddle2
LeftHandMiddle4	LeftHandMiddle3
LeftHandRing1	LeftHand
LeftHandRing2	LeftHandRing1
LeftHandRing3	LeftHandRing2
LeftHandRing4	LeftHandRing3
LeftHandPinky1	LeftHand
LeftHandPinky2	LeftHandPinky1
LeftHandPinky3	LeftHandPinky2
LeftHandPinky4	LeftHandPinky3
RightShoulder	Spine2
RightArm	RightShoulder
RightForeArm	RightArm
RightHand	RightForeArm
RightHandPinky1	RightHand
RightHandPinky2	RightHandPinky1
RightHandPinky3	RightHandPinky2
RightHandPinky4	RightHandPinky3
RightHandRing1	RightHand
RightHandRing2	RightHandRing1
RightHandRing3	RightHandRing2
RightHandRing4	RightHandRing3
RightHandMiddle1	RightHand
RightHandMiddle2	RightHandMiddle1
RightHandMiddle3	RightHandMiddle2
RightHandMiddle4	RightHandMiddle3
RightHandIndex1	RightHand
RightHandIndex2	RightHandIndex1
RightHandIndex3	RightHandIndex2
RightHandIndex4	RightHandIndex3
RightHandThumb1	RightHand
RightHandThumb2	RightHandThumb1
RightHandThumb3	RightHandThumb2
RightHandThumb4	RightHandThumb3
LeftUpLeg	Hips
LeftLeg	LeftUpLeg
LeftFoot	LeftLeg
LeftToeBase	LeftFoot
RightUpLeg	Hips
RightLeg	RightUpLeg
RightFoot	RightLeg
RightToeBase	RightFoot
[BasePosition]
Hips	0	0	0	0	0	0	1
Spine	0	0	0	0	0	0	1
Spine1	0	0	0	0	0	0	1
Spine2	0	0	0	0	0	0	1
Neck	0	0	0	0	0	0	1
Head	0	0	0	0	0	0	1
LeftEye	0	0	0	0	0	0	1
RightEye	0	0	0	0	0	0	1
LeftShoulder	0	0	0	0	0	0	1
LeftArm	0	0	0	0	0	0	1
LeftForeArm	0	0	0	0	0	0	1
LeftHand	0	0	0	0	0	0	1
LeftHandThumb1	0	0	0	0	0	0	1
LeftHandThumb2	0	0	0	0	0	0	1
LeftHandThumb3	0	0	0	0	0	0	1
LeftHandThumb4	0	0	0	0	0	0	1
LeftHandIndex1	0	0	0	0	0	0	1
LeftHandIndex2	0	0	0	0	0	0	1
LeftHandIndex3	0	0	0	0	0	0	1
LeftHandIndex4	0	0	0	0	0	0	1
LeftHandMiddle1	0	0	0	0	0	0	1
LeftHandMiddle2	0	0	0	0	0	0	1
LeftHandMiddle3	0	0	0	0	0	0	1
LeftHandMiddle4	0	0	0	0	0	0	1
LeftHandRing1	0	0	0	0	0	0	1
LeftHandRing2	0	0	0	0	0	0	1
LeftHandRing3	0	0	0	0	0	0	1
LeftHandRing4	0	0	0	0	0	0	1
LeftHandPinky1	0	0	0	0	0	0	1
LeftHandPinky2	0	0	0	0	0	0	1
LeftHandPinky3	0	0	0	0	0	0	1
LeftHandPinky4	0	0	0	0	0	0	1
RightShoulder	0	0	0	0	0	0	1
RightArm	0	0	0	0	0	0	1
RightForeArm	0	0	0	0	0	0	1
RightHand	0	0	0	0	0	0	1
RightHandPinky1	0	0	0	0	0	0	1
RightHandPinky2	0	0	0	0	0	0	1
RightHandPinky3	0	0	0	0	0	0	1
RightHandPinky4	0	0	0	0	0	0	1
RightHandRing1	0	0	0	0	0	0	1
RightHandRing2	0	0	0	0	0	0	1
RightHandRing3	0	0	0	0	0	0	1
RightHandRing4	0	0	0	0	0	0	1
RightHandMiddle1	0	0	0	0	0	0	1
RightHandMiddle2	0	0	0	0	0	0	1
RightHandMiddle3	0	0	0	0	0	0	1
RightHandMiddle4	0	0	0	0	0	0	1
RightHandIndex1	0	0	0	0	0	0	1
RightHandIndex2	0	0	0	0	0	0	1
RightHandIndex3	0	0	0	0	0	0	1
RightHandIndex4	0	0	0	0	0	0	1
RightHandThumb1	0	0	0	0	0	0	1
RightHandThumb2	0	0	0	0	0	0	1
RightHandThumb3	0	0	0	0	0	0	1
RightHandThumb4	0	0	0	0	0	0	1
LeftUpLeg	0	0	0	0	0	0	1
LeftLeg	0	0	0	0	0	0	1
LeftFoot	0	0	0	0	0	0	1
LeftToeBase	0	0	0	0	0	0	1
RightUpLeg	0	0	0	0	0	0	1
RightLeg	0	0	0	0	0	0	1
RightFoot	0	0	0	0	0	0	1
RightToeBase	0	0	0	0	0	0	1
[Hips]
21	1468.914917	924.3933716	11.22827148	-0.8075449467	80.49710083	-7.401184559	1.0
22	1544.262573	934.1241455	9.444814682	-10.03040409	75.99902344	-17.0409584	1.0
23	1611.966553	949.5852661	10.79694653	-10.88269043	71.9538269	-18.13241768	1.0
[Spine]
21	0	101.8159943	1.315000057	4.377274036	-19.72427177	4.391219139	1.0
22	0	101.8159943	1.315000057	4.525799274	-17.57816124	6.792334557	1.0
23	0	101.8159943	1.315000057	5.157141209	-13.8904953	6.886453152	1.0
[Spine1]
21	0	100.8349991	-10.00800037	3.32930851	-6.985958576	1.830257773	1.0
22	0	100.8349991	-10.00800037	3.646186113	-6.809230804	2.445646286	1.0
23	0	100.8349991	-10.00800037	3.861537457	-7.127224922	2.642973185	1.0
[Spine2]
21	0	91	-13.73399925	3.239521742	-7.025961399	1.813888431	1.0
22	0	91	-13.73399925	3.572906017	-6.849802971	2.409771204	1.0
23	0	91	-13.73399925	3.793160915	-7.16257906	2.608856201	1.0
[Neck]
21	0	166.7169952	-25.16200066	3.948566914	-5.632476807	-1.749694586	1.0
22	0	166.7169952	-25.16200066	4.102930069	-5.464354038	-1.74118197	1.0
23	0	166.7169952	-25.16200066	4.458984852	-5.613829613	-1.070422173	1.0
[Head]
21	0	96.17900085	16.84999847	-14.23146057	-33.72319031	12.19171619	1.0
22	0	96.17900085	16.84999847	-14.0199976	-32.62116241	11.06310177	1.0
23	0	96.17900085	16.84999847	-13.94704342	-32.71702194	11.24158955	1.0
[LeftEye]
21	30.6760006	64.09500122	92.83599854	0	0	0	1.0
22	30.6760006	64.09500122	92.83599854	0	0	0	1.0
23	30.6760006	64.09500122	92.83599854	0	0	0	1.0
[RightEye]
21	-30.6760006	64.09500122	92.83499908	0	0	0	1.0
22	-30.6760006	64.09500122	92.83499908	0	0	0	1.0
23	-30.6760006	64.09500122	92.83499908	0	0	0	1.0
[LeftShoulder]
21	45.70400238	109.4599991	-26.28000069	-1.59357512	-9.593233109	-10.00317764	1.0
22	45.70400238	109.4599991	-26.28000069	-0.9010371566	-9.227028847	-10.0659399	1.0
23	45.70400238	109.4599991	-26.28000069	-0.1137055531	-9.07451725	-9.992812157	1.0
[LeftArm]
21	105.923996	-5.24600029	-22.32099915	38.45053101	-30.45281792	-62.78778839	1.0
22	105.923996	-5.24600029	-22.32099915	37.83530045	-29.85033417	-65.71460724	1.0
23	105.923996	-5.24600029	-22.32099915	37.05463028	-29.18343735	-65.55607605	1.0
[LeftForeArm]
21	278.414978	-0.0009999999311	0	-9.942534689e-07	-20.0358181	-0.000192922671	1.0
22	278.414978	-0.0009999999311	0	1.293589094e-07	-17.73544884	-0.0002198990842	1.0
23	278.414978	-0.0009999999311	0	-7.754983926e-07	-15.49775219	-0.0001958561188	1.0
[LeftHand]
21	283.2879944	0	0	-6.740938663	-8.34014225	18.26485825	1.0
22	283.2879944	0	0	-7.923763275	-6.59470129	14.60213089	1.0
23	283.2879944	0	0	-7.876312256	-3.274742842	10.92826748	1.0
[LeftHandThumb1]
21	24.6609993	-15.75	26.8239994	0.9464570284	1.151123047	0.2541034818	1.0
22	24.6609993	-15.75	26.8239994	0.9464570284	1.151123047	0.2541034818	1.0
23	24.6609993	-15.75	26.8239994	0.9464570284	1.151123047	0.2541034818	1.0
[LeftHandThumb2]
21	32.29800034	-18.64699936	18.64699936	17.54529381	7.846935749	18.87503242	1.0
22	32.29800034	-18.64699936	18.64699936	17.36752129	9.367506027	19.44708443	1.0
23	32.29800034	-18.64699936	18.64699936	16.1638279	5.27900219	18.25153732	1.0
[LeftHandThumb3]
21	26.52600098	-15.31499958	15.31499958	-5.03196907	-17.4492321	25.21957016	1.0
22	26.52600098	-15.31499958	15.31499958	-4.965785503	-17.19623375	25.4596138	1.0
23	26.52600098	-15.31499958	15.31499958	-3.948729277	-15.00963879	23.67131424	1.0
[LeftHandThumb4]
21	19.54599953	-11.28499985	11.28499985	0	0	0	1.0
22	19.54599953	-11.28499985	11.28499985	0	0	0	1.0
23	19.54599953	-11.28499985	11.28499985	0	0	0	1.0
[LeftHandIndex1]
21	91.09299469	-5.170999527	22.60099792	-1.324002147	1.853339314	-28.15116119	1.0
22	91.09299469	-5.170999527	22.60099792	-1.258787274	1.77826786	-27.56089401	1.0
23	91.09299469	-5.170999527	22.60099792	-1.301147342	0.6447689533	-26.16238976	1.0
[LeftHandIndex2]
21	36.76399994	0	0	-0.1291278154	1.221751451	-12.06637859	1.0
22	36.76399994	0	0	-0.1285893917	1.219206929	-12.04079342	1.0
23	36.76399994	0	0	-0.1278396994	1.21570909	-12.00569725	1.0
[LeftHandIndex3]
21	28.83100128	0	0	-0.1343460828	1.245868325	-12.30825996	1.0
22	28.83100128	0	0	-0.1337832063	1.243317366	-12.28268147	1.0
23	28.83100128	0	0	-0.1330220997	1.239806533	-12.24744606	1.0
[LeftHandIndex4]
21	23.92700005	0	0	0	0	0	1.0
22	23.92700005	0	0	0	0	0	1.0
23	23.92700005	0	0	0	0	0	1.0
[LeftHandMiddle1]
21	95.33399963	0	0	-2.257374048	4.460742474	-33.95593643	1.0
22	95.33399963	0	0	-2.209229231	4.465834141	-33.42712402	1.0
23	95.33399963	0	0	-2.079618216	4.289480686	-31.98994637	1.0
[LeftHandMiddle2]
21	36.98199844	0	0	-0.3033313751	1.858117223	-18.54143906	1.0
22	36.98199844	0	0	-0.3023617864	1.855233788	-18.51154137	1.0
23	36.98199844	0	0	-0.3028338253	1.856644511	-18.52615929	1.0
[LeftHandMiddle3]
21	29.50900078	0	0	-0.1093127653	1.125127316	-11.09911728	1.0
22	29.50900078	0	0	-0.1087387428	1.122130394	-11.06917858	1.0
23	29.50900078	0	0	-0.1090210155	1.123593926	-11.08376408	1.0
[LeftHandMiddle4]
21	28.3390007	0	0	0	0	0	1.0
22	28.3390007	0	0	0	0	0	1.0
23	28.3390007	0	0	0	0	0	1.0
[LeftHandRing1]
21	91.04499817	-0.4390000105	-18.65100098	-2.239509106	7.811584473	-33.79658127	1.0
22	91.04499817	-0.4390000105	-18.65100098	-2.249747753	7.831129074	-33.90815735	1.0
23	91.04499817	-0.4390000105	-18.65100098	-2.197743654	7.430391788	-33.32808685	1.0
[LeftHandRing2]
21	31.54000092	0	0	-0.4636623859	2.280800343	-22.9792099	1.0
22	31.54000092	0	0	-0.4644953609	2.282762766	-23.00013542	1.0
23	31.54000092	0	0	-0.4629364908	2.279094219	-22.96092224	1.0
[LeftHandRing3]
21	29.37700081	0	0	-0.3324442208	1.942709446	-19.41924477	1.0
22	29.37700081	0	0	-0.3331587613	1.944739699	-19.4403019	1.0
23	29.37700081	0	0	-0.3319016397	1.941178441	-19.40327835	1.0
[LeftHandRing4]
21	26.47500038	0	0	0	0	0	1.0
22	26.47500038	0	0	0	0	0	1.0
23	26.47500038	0	0	0	0	0	1.0
[LeftHandPinky1]
21	80.77799988	-4.887000084	-38.06099701	-2.672231913	3.590762854	-38.39372635	1.0
22	80.77799988	-4.887000084	-38.06099701	-2.705310106	3.681495428	-38.7364769	1.0
23	80.77799988	-4.887000084	-38.06099701	-2.630208731	4.469074726	-37.93845749	1.0
[LeftHandPinky2]
21	36	0	0	-0.478284955	2.314954996	-23.34385872	1.0
22	36	0	0	-0.4824230373	2.324522257	-23.44612122	1.0
23	36	0	0	-0.4883750677	2.338184595	-23.59245491	1.0
[LeftHandPinky3]
21	21.14200211	0	0	-0.2039432377	1.530336738	-15.18080521	1.0
22	21.14200211	0	0	-0.2067867219	1.540797234	-15.28714275	1.0
23	21.14200211	0	0	-0.2108365595	1.555547595	-15.43717098	1.0
[LeftHandPinky4]
21	19.75699997	0	0	0	0	0	1.0
22	19.75699997	0	0	0	0	0	1.0
23	19.75699997	0	0	0	0	0	1.0
[RightShoulder]
21	-45.70000076	109.4620056	-26.28000069	1.121336818	-6.019766331	8.414889336	1.0
22	-45.70000076	109.4620056	-26.28000069	1.016950965	-4.845263481	8.637561798	1.0
23	-45.70000076	109.4620056	-26.28000069	0.8390728235	-4.028696537	9.364601135	1.0
[RightArm]
21	-105.9280014	-5.248000145	-22.32099915	15.11660385	-1.683716297	62.50133514	1.0
22	-105.9280014	-5.248000145	-22.32099915	15.58883667	0.06727137417	61.41902542	1.0
23	-105.9280014	-5.248000145	-22.32099915	15.60102367	2.308744192	61.57572174	1.0
[RightForeArm]
21	-278.414978	0	0	-3.280328656e-06	6.443917274	-1.182133701e-06	1.0
22	-278.414978	0	0	5.659924227e-07	5.686257362	4.301755325e-06	1.0
23	-278.414978	0	0	-2.079628302e-06	5.998294353	1.200570182e-06	1.0
[RightHand]
21	-283.2879944	0	0.0009999999311	6.9666605	-3.228196859	-5.01367569	1.0
22	-283.2879944	0	0.0009999999311	7.252053738	-3.055464268	-5.969410896	1.0
23	-283.2879944	0	0.0009999999311	6.652503014	-0.3051096797	-4.672225952	1.0
[RightHandPinky1]
21	-80.76699829	-4.885000229	-38.06000137	-1.609504223	-1.982760906	28.34781265	1.0
22	-80.76699829	-4.885000229	-38.06000137	-1.729766369	-1.132765055	29.99648285	1.0
23	-80.76699829	-4.885000229	-38.06000137	-1.768746495	-0.9329907298	30.52122688	1.0
[RightHandPinky2]
21	-36	0	0.0009999999311	-0.382804513	-1.845218301	23.45812035	1.0
22	-36	0	0.0009999999311	-0.3750874698	-1.827302337	23.21684074	1.0
23	-36	0	0.0009999999311	-0.388181746	-1.857593417	23.62478828	1.0
[RightHandPinky3]
21	-21.14200211	0	0	-0.4349108934	-1.960989237	25.00722885	1.0
22	-21.14200211	0	0	-0.4346421361	-1.960456133	25.00009918	1.0
23	-21.14200211	0	0	-0.4406748414	-1.973282456	25.17507553	1.0
[RightHandPinky4]
21	-19.75699997	0	0	0	0	0	1.0
22	-19.75699997	0	0	0	0	0	1.0
23	-19.75699997	0	0	0	0	0	1.0
[RightHandRing1]
21	-91.03599548	-0.4390000105	-18.65100098	-1.867862105	-2.636885166	31.97137451	1.0
22	-91.03599548	-0.4390000105	-18.65100098	-1.970534563	-2.221212864	33.30745697	1.0
23	-91.03599548	-0.4390000105	-18.65100098	-2.022727728	-2.058168411	33.97852707	1.0
[RightHandRing2]
21	-31.54000092	0	0	-0.6753466725	-2.409857273	31.30563736	1.0
22	-31.54000092	0	0	-0.6789084673	-2.415734529	31.39075851	1.0
23	-31.54000092	0	0	-0.6870767474	-2.42903471	31.58372688	1.0
[RightHandRing3]
21	-29.37700081	0	0	-0.7516464591	-2.530993938	33.07608032	1.0
22	-29.37700081	0	0	-0.7554516196	-2.536823034	33.16205978	1.0
23	-29.37700081	0	0	-0.7641277909	-2.550016642	33.35767365	1.0
[RightHandRing4]
21	-26.47500038	0	0	0	0	0	1.0
22	-26.47500038	0	0	0	0	0	1.0
23	-26.47500038	0	0	0	0	0	1.0
[RightHandMiddle1]
21	-95.32500458	0	0	-2.103260279	-1.811312914	35.00229263	1.0
22	-95.32500458	0	0	-2.243608952	-1.468502402	36.76684189	1.0
23	-95.32500458	0	0	-2.335868359	-1.261395931	37.91008759	1.0
[RightHandMiddle2]
21	-36.98199844	0	0	-0.4429964721	-1.978218913	25.24264526	1.0
22	-36.98199844	0	0	-0.4396162033	-1.971034765	25.14455795	1.0
23	-36.98199844	0	0	-0.4389217198	-1.969593525	25.1247921	1.0
[RightHandMiddle3]
21	-29.50900078	0	0	-0.3093738854	-1.667767882	21.04167366	1.0
22	-29.50900078	0	0	-0.3064873219	-1.660254121	20.9424305	1.0
23	-29.50900078	0	0	-0.3059174716	-1.658753157	20.92247772	1.0
[RightHandMiddle4]
21	-28.3390007	0	0.0009999999311	0	0	0	1.0
22	-28.3390007	0	0.0009999999311	0	0	0	1.0
23	-28.3390007	0	0.0009999999311	0	0	0	1.0
[RightHandIndex1]
21	-91.08300018	-5.167999744	22.60099792	-1.170743346	6.306674004	24.02681732	1.0
22	-91.08300018	-5.167999744	22.60099792	-1.353254199	6.576368809	26.05669212	1.0
23	-91.08300018	-5.167999744	22.60099792	-1.457585573	6.804495335	27.25042343	1.0
[RightHandIndex2]
21	-36.76399994	0	0	-0.5618457794	-2.212665319	28.49210167	1.0
22	-36.76399994	0	0	-0.5587585568	-2.206983089	28.41240311	1.0
23	-36.76399994	0	0	-0.5616955161	-2.212396383	28.48836327	1.0
[RightHandIndex3]
21	-28.83100128	0	0	-0.2291240245	-1.439986348	18.08102608	1.0
22	-28.83100128	0	0	-0.2271091193	-1.433773398	18.00054359	1.0
23	-28.83100128	0	0	-0.2290312648	-1.439694285	18.07740974	1.0
[RightHandIndex4]
21	-23.92700005	0	0	0	0	0	1.0
22	-23.92700005	0	0	0	0	0	1.0
23	-23.92700005	0	0	0	0	0	1.0
[RightHandThumb1]
21	-24.64799881	-15.72700024	26.82600021	30.15343666	21.14214134	-10.25145817	1.0
22	-24.64799881	-15.72700024	26.82600021	30.15343666	21.14214134	-10.25145817	1.0
23	-24.64799881	-15.72700024	26.82600021	30.15343666	21.14214134	-10.25145817	1.0
[RightHandThumb2]
21	-32.29800034	-18.64699936	18.64699936	13.7244339	-21.75483513	1.762287259	1.0
22	-32.29800034	-18.64699936	18.64699936	14.01899338	-18.57613373	1.939198732	1.0
23	-32.29800034	-18.64699936	18.64699936	13.84959507	-18.2056427	2.022293568	1.0
[RightHandThumb3]
21	-26.52600098	-15.31399918	15.31399918	-11.94110107	-13.45357895	-10.39003563	1.0
22	-26.52600098	-15.31399918	15.31399918	-11.96654987	-13.39157391	-10.40728283	1.0
23	-26.52600098	-15.31399918	15.31399918	-11.97486305	-13.37226105	-10.41236877	1.0
[RightHandThumb4]
21	-19.54599953	-11.28499985	11.28499985	0	0	0	1.0
22	-19.54599953	-11.28499985	11.28499985	0	0	0	1.0
23	-19.54599953	-11.28499985	11.28499985	0	0	0	1.0
[LeftUpLeg]
21	82.07800293	-67.51699829	-15.99599934	17.81077957	14.79867744	1.546059012	1.0
22	82.07800293	-67.51699829	-15.99599934	7.777408123	16.16743088	3.785853386	1.0
23	82.07800293	-67.51699829	-15.99599934	-4.32406044	15.34103775	3.068856001	1.0
[LeftLeg]
21	0	-443.7049866	2.845999956	17.34929276	-8.66735363	-3.967472315	1.0
22	0	-443.7049866	2.845999956	39.01490784	-6.684247971	-6.810666084	1.0
23	0	-443.7049866	2.845999956	57.71667862	-4.347981453	-8.647768021	1.0
[LeftFoot]
21	0	-444.2789917	-29.8219986	-8.819146156	-19.86323929	15.96545887	1.0
22	0	-444.2789917	-29.8219986	13.27019691	-19.03878975	-4.158231735	1.0
23	0	-444.2789917	-29.8219986	16.74128723	-10.28287506	-13.31236744	1.0
[LeftToeBase]
21	0	-87.28699493	107.1060028	-31.61284637	0.6299338341	1.053231597	1.0
22	0	-87.28699493	107.1060028	-26.16635895	3.477490664	9.832817078	1.0
23	0	-87.28699493	107.1060028	-12.29542542	-7.448978522e-06	-1.489157967e-05	1.0
[RightUpLeg]
21	-82.07800293	-67.51699829	-15.99599934	-47.33126831	0.6644169688	4.721511364	1.0
22	-82.07800293	-67.51699829	-15.99599934	-45.16592026	0.9784943461	8.060973167	1.0
23	-82.07800293	-67.51699829	-15.99599934	-40.86776733	1.027668357	9.525378227	1.0
[RightLeg]
21	0	-443.7049866	2.861999989	30.03822327	-7.384455204	-4.327741146	1.0
22	0	-443.7049866	2.861999989	35.25525284	-4.417079449	-3.023878098	1.0
23	0	-443.7049866	2.861999989	35.89914322	-1.371243358	-0.8974180818	1.0
[RightFoot]
21	0	-444.2770081	-29.83799934	10.43184948	0.6110628843	-5.058701038	1.0
22	0	-444.2770081	-29.83799934	3.128659964	0.8970936537	-4.400877476	1.0
23	0	-444.2770081	-29.83799934	-1.459587097	0.7309439182	-4.104399204	1.0
[RightToeBase]
21	0	-87.28699493	107.1060028	-7.249240398	1.793020783e-05	-1.058341354e-06	1.0
22	0	-87.28699493	107.1060028	-6.010782242	4.798527243e-06	-1.201504006e-06	1.0
23	0	-87.28699493	107.1060028	-6.01077652	-1.030657313e-05	-1.852484957e-07	1.0
[EndOfFile]
